<svg width="234" height="100" viewBox="0 0 234 100" fill="none" xmlns="http://www.w3.org/2000/svg">
<circle cx="50" cy="50" r="48" stroke="white" stroke-width="4"/>
<path d="M50 0L51.9134 45.3806L85.3553 14.6447L54.6194 48.0866L100 50L54.6194 51.9134L85.3553 85.3553L51.9134 54.6194L50 100L48.0866 54.6194L14.6447 85.3553L45.3806 51.9134L0 50L45.3806 48.0866L14.6447 14.6447L48.0866 45.3806L50 0Z" fill="white"/>
<path d="M135.032 59.288C133.736 59.288 132.528 59.08 131.408 58.664C130.304 58.232 129.344 57.624 128.528 56.84C127.712 56.056 127.072 55.136 126.608 54.08C126.16 53.024 125.936 51.864 125.936 50.6C125.936 49.336 126.16 48.176 126.608 47.12C127.072 46.064 127.712 45.144 128.528 44.36C129.36 43.576 130.328 42.976 131.432 42.56C132.536 42.128 133.744 41.912 135.056 41.912C136.512 41.912 137.824 42.168 138.992 42.68C140.176 43.176 141.168 43.912 141.968 44.888L139.472 47.192C138.896 46.536 138.256 46.048 137.552 45.728C136.848 45.392 136.08 45.224 135.248 45.224C134.464 45.224 133.744 45.352 133.088 45.608C132.432 45.864 131.864 46.232 131.384 46.712C130.904 47.192 130.528 47.76 130.256 48.416C130 49.072 129.872 49.8 129.872 50.6C129.872 51.4 130 52.128 130.256 52.784C130.528 53.44 130.904 54.008 131.384 54.488C131.864 54.968 132.432 55.336 133.088 55.592C133.744 55.848 134.464 55.976 135.248 55.976C136.08 55.976 136.848 55.816 137.552 55.496C138.256 55.16 138.896 54.656 139.472 53.984L141.968 56.288C141.168 57.264 140.176 58.008 138.992 58.52C137.824 59.032 136.504 59.288 135.032 59.288ZM144.502 59V42.2H148.366V53.144L156.382 42.2H160.03V59H156.19V48.08L148.174 59H144.502ZM164.213 59V42.2H171.485C172.989 42.2 174.285 42.448 175.373 42.944C176.461 43.424 177.301 44.12 177.893 45.032C178.485 45.944 178.781 47.032 178.781 48.296C178.781 49.544 178.485 50.624 177.893 51.536C177.301 52.448 176.461 53.152 175.373 53.648C174.285 54.128 172.989 54.368 171.485 54.368H166.373L168.101 52.616V59H164.213ZM168.101 53.048L166.373 51.2H171.269C172.469 51.2 173.365 50.944 173.957 50.432C174.549 49.92 174.845 49.208 174.845 48.296C174.845 47.368 174.549 46.648 173.957 46.136C173.365 45.624 172.469 45.368 171.269 45.368H166.373L168.101 43.52V53.048ZM181.346 59V42.2H185.21V53.144L193.226 42.2H196.874V59H193.034V48.08L185.018 59H181.346ZM201.633 55.832C202.561 56.104 203.337 56.184 203.961 56.072C204.601 55.944 205.169 55.496 205.665 54.728L206.481 53.504L206.841 53.096L212.409 42.2H216.225L209.073 55.496C208.433 56.696 207.673 57.616 206.793 58.256C205.929 58.896 204.977 59.256 203.937 59.336C202.897 59.432 201.817 59.248 200.697 58.784L201.633 55.832ZM206.769 56.336L199.185 42.2H203.337L208.905 53.48L206.769 56.336ZM225.829 59.288C224.533 59.288 223.325 59.08 222.205 58.664C221.101 58.232 220.141 57.624 219.325 56.84C218.509 56.056 217.869 55.136 217.405 54.08C216.957 53.024 216.733 51.864 216.733 50.6C216.733 49.336 216.957 48.176 217.405 47.12C217.869 46.064 218.509 45.144 219.325 44.36C220.157 43.576 221.125 42.976 222.229 42.56C223.333 42.128 224.541 41.912 225.853 41.912C227.309 41.912 228.621 42.168 229.789 42.68C230.973 43.176 231.965 43.912 232.765 44.888L230.269 47.192C229.693 46.536 229.053 46.048 228.349 45.728C227.645 45.392 226.877 45.224 226.045 45.224C225.261 45.224 224.541 45.352 223.885 45.608C223.229 45.864 222.661 46.232 222.181 46.712C221.701 47.192 221.325 47.76 221.053 48.416C220.797 49.072 220.669 49.8 220.669 50.6C220.669 51.4 220.797 52.128 221.053 52.784C221.325 53.44 221.701 54.008 222.181 54.488C222.661 54.968 223.229 55.336 223.885 55.592C224.541 55.848 225.261 55.976 226.045 55.976C226.877 55.976 227.645 55.816 228.349 55.496C229.053 55.16 229.693 54.656 230.269 53.984L232.765 56.288C231.965 57.264 230.973 58.008 229.789 58.52C228.621 59.032 227.301 59.288 225.829 59.288Z" fill="white"/>
</svg>
